<?xml version="1.0" standalone="no"?>
<!DOCTYPE svg PUBLIC "-//W3C//DTD SVG 20010904//EN"
 "http://www.w3.org/TR/2001/REC-SVG-20010904/DTD/svg10.dtd">
<svg version="1.0" xmlns="http://www.w3.org/2000/svg"
 width="300.000000pt" height="300.000000pt" viewBox="0 0 300.000000 300.000000"
 preserveAspectRatio="xMidYMid meet">
<metadata>
Created by potrace 1.14, written by Peter Selinger 2001-2017
</metadata>
<g transform="translate(0.000000,300.000000) scale(0.100000,-0.100000)"
fill="#000000" stroke="none">
<path d="M448 2435 c-5 -1 -4 -1385 1 -1385 3 0 276 270 606 600 l600 600 214
0 215 0 -237 -236 c-130 -130 -237 -239 -237 -243 0 -3 27 -34 60 -68 l60 -62
387 390 c213 214 389 392 390 396 2 5 -206 8 -462 7 l-464 -1 -476 -476 c-261
-262 -476 -475 -476 -474 -1 1 -2 174 -3 385 l-1 382 25 1 c77 4 227 4 238 1
9 -3 12 -35 12 -116 l0 -111 91 91 91 91 0 107 c0 59 -3 110 -7 114 -4 5 -602
12 -627 7z"/>
<path d="M1411 1576 l-63 -64 373 -374 c206 -206 379 -381 386 -389 11 -13
-13 -15 -208 -14 l-221 0 -81 86 c-45 47 -136 143 -202 214 -66 71 -150 160
-187 199 l-67 71 -32 -35 c-18 -19 -85 -91 -150 -160 -64 -69 -127 -136 -139
-150 -12 -14 -54 -59 -93 -100 -123 -129 -272 -291 -275 -300 -2 -4 50 -7 115
-6 l118 1 71 75 c116 123 313 334 356 382 l27 30 28 -29 c34 -36 268 -284 313
-333 18 -19 51 -56 75 -81 l42 -45 472 0 c259 1 472 4 474 8 1 5 -1061 1078
-1068 1078 0 0 -29 -29 -64 -64z"/>
</g>
</svg>
